<svg xmlns="http://www.w3.org/2000/svg" viewBox="0 0 420 100" width="420" height="100">
  <defs>
    <linearGradient id="pupLogoGrad" x1="0%" y1="0%" x2="100%" y2="100%">
      <stop offset="0%" stop-color="#A27046"/>
      <stop offset="100%" stop-color="#734927"/>
    </linearGradient>
    <linearGradient id="lumeLogoStar" x1="0%" y1="0%" x2="100%" y2="100%">
      <stop offset="0%" stop-color="#F8D38D"/>
      <stop offset="100%" stop-color="#8B5E3C"/>
    </linearGradient>
  </defs>

  <!-- Icon Mark (left) -->
  <g transform="translate(6, 6) scale(0.18)">
    <rect width="480" height="480" rx="120" fill="#FFF9F2" stroke="#E8DDD3" stroke-width="12"/>
    <g transform="translate(20, 30)">
      <path d="M 220 80 C 130 80 70 140 70 240 C 70 330 140 380 220 380 C 300 380 370 330 370 240 C 370 140 310 80 220 80 Z" fill="url(#pupLogoGrad)"/>
      <path d="M 120 120 C 60 140 30 210 40 290 C 45 320 70 340 95 325 C 115 310 135 250 140 200 Z" fill="#5F3E29"/>
      <path d="M 320 120 C 380 140 410 210 400 290 C 395 320 370 340 345 325 C 325 310 305 250 300 200 Z" fill="#5F3E29"/>
      <ellipse cx="220" cy="275" rx="85" ry="70" fill="#FFF9F2"/>
      <path d="M 195 240 C 195 230 245 230 245 240 C 245 258 228 272 220 272 C 212 272 195 258 195 240 Z" fill="#2C211B"/>
      <circle cx="165" cy="205" r="14" fill="#2C211B"/>
      <circle cx="275" cy="205" r="14" fill="#2C211B"/>
      <g transform="translate(290, 45)">
        <path d="M 40 0 C 40 22 58 40 80 40 C 58 40 40 58 40 80 C 40 58 22 40 0 40 C 22 40 40 22 40 0 Z" fill="url(#lumeLogoStar)"/>
      </g>
    </g>
  </g>

  <!-- Typography -->
  <text x="112" y="60" font-family="system-ui, -apple-system, BlinkMacSystemFont, 'Segoe UI', Roboto, sans-serif" font-weight="800" font-size="38" letter-spacing="-0.5" fill="#2C211B">Pup<tspan fill="#8B5E3C">Lume</tspan></text>
  <text x="114" y="80" font-family="system-ui, -apple-system, BlinkMacSystemFont, 'Segoe UI', Roboto, sans-serif" font-weight="600" font-size="12" letter-spacing="1.5" fill="#766A63">AI PUPPY MANAGER</text>
</svg>
